PathFileType	4	(X/Y/Z)	Patient4_TMGait_0pt4_02_left_15.trc.trc
DataRate	CameraRate	NumFrames	NumMarkers	Units	OrigDataRate	OrigDataStartFrame	OrigNumFrames
74.074074074074	74.074074074074	4	33	mm	74.074074074074	124	       141
Frame#	Time	Sacral			L.Shoulder			Chest			R.Shoulder			Neck			R.ASIS			L.ASIS			R.Thigh.Superior			R.Thigh.Lateral			R.Thigh.Inferior			R.Patella			L.Thigh.Superior			L.Thigh.Lateral			L.Thigh.Inferior			L.Patella			L.Shank.Superior			L.Shank.Lateral			L.Shank.Inferior			R.Shank.Superior			R.Shank.Lateral			R.Shank.Inferior			R.Heel			R.Midfoot.Superior			R.Midfoot.Lateral			R.Toe			L.Heel			L.Midfoot.Lateral			L.Midfoot.Superior			L.Toe			L.Elbow			L.Wrist			R.Elbow			R.Wrist			
		X1	Y1	Z1	X2	Y2	Z2	X3	Y3	Z3	X4	Y4	Z4	X5	Y5	Z5	X6	Y6	Z6	X7	Y7	Z7	X8	Y8	Z8	X9	Y9	Z9	X10	Y10	Z10	X11	Y11	Z11	X12	Y12	Z12	X13	Y13	Z13	X14	Y14	Z14	X15	Y15	Z15	X16	Y16	Z16	X17	Y17	Z17	X18	Y18	Z18	X19	Y19	Z19	X20	Y20	Z20	X21	Y21	Z21	X22	Y22	Z22	X23	Y23	Z23	X24	Y24	Z24	X25	Y25	Z25	X26	Y26	Z26	X27	Y27	Z27	X28	Y28	Z28	X29	Y29	Z29	X30	Y30	Z30	X31	Y31	Z31	X32	Y32	Z32	X33	Y33	Z33	

124	21.640500000000	878.150834663772	1002.236811952502	506.773371039189	1031.338826203475	1420.235626590705	291.308155842710	1160.454087524131	1354.516083064815	433.207763290465	1110.697384398557	1433.916129392521	617.161206809443	1042.355390772717	1485.875375226593	443.274619694009	1116.791217076710	931.033921555152	592.612883310765	1068.540140122036	950.680923262199	321.573031672518	1112.376055234371	718.234064998628	564.701033229060	1015.210488483164	624.134658405554	636.566981820935	1067.723281564455	559.092376582312	550.848273634783	1048.607744433616	474.318680454917	557.206295355578	1147.297065229662	767.101155844694	348.743704255616	1090.532035073592	636.779653139786	280.591277229164	1198.265567438073	580.205448002201	335.602767085262	1219.913374205658	510.755677665800	334.400556590398	1197.223019174645	435.953663831610	325.667602016890	1116.230100714796	313.326373090594	278.487022832991	1193.547957594499	206.322918705107	332.765770273611	1008.796775134059	390.267672374925	568.517854313516	928.243753866081	298.287593914645	638.133282649258	948.256353835454	198.772733521148	572.618380697075	794.091456461707	42.771046786783	552.820290494858	966.187215617379	95.599462053301	581.451724805924	879.554573531926	36.611269138071	624.993425640903	1087.428085832379	42.945648550598	607.037661175911	1091.755131707657	39.699065881239	374.310088031505	1163.067618057511	38.486390620696	291.638117844323	1242.455090001625	106.345307905967	313.236304316122	1371.677246015476	62.745154617544	281.859231958857	911.070896921215	1080.090509020046	212.928247963485	908.700226276390	818.842681498176	212.882346433375	1210.207853841633	1109.764227297597	738.729050514896	1413.103120069279	1186.080918839208	620.100162430194	
125	21.654000000000	879.508935189177	1001.229341172260	503.943728593926	1031.819604108189	1418.817814866152	287.508355387496	1161.081063049961	1353.893828365109	429.667610373843	1110.881351465551	1433.539456239446	613.468822218195	1042.598563769003	1484.966652545318	439.292966553171	1118.249884188590	930.169006850325	589.996021914188	1070.073051939733	949.589506053864	319.152556127657	1113.870441460560	717.065349764416	562.505105119000	1016.217940546622	623.090882352644	634.208998468423	1068.687950570007	557.696335763060	548.721021270628	1049.104248443802	472.263118113184	555.080834438669	1148.660710211385	764.950869801687	346.795657431607	1090.138731025801	635.167749278547	279.740340702380	1197.509213633473	577.976358339775	334.961808679740	1217.798770951558	507.916040417088	334.327143249384	1194.656091109570	433.085353512999	325.560999647646	1112.471363209810	311.100535635721	278.541024645333	1188.201096875327	203.579426133557	333.838571242701	1007.896108219432	388.821115204979	566.675972395342	926.219407868607	298.224125861228	636.992700949376	944.457451751032	198.194154067180	571.847681054148	788.667195896229	43.261638348598	552.986453603375	960.941246382621	95.595428920184	581.356186996860	874.214433217641	36.736340637600	625.044720461580	1082.134418595986	42.560348715050	607.124329432708	1083.760978335643	38.903759626057	375.717819746533	1154.993578536230	37.000588420701	292.864480794888	1235.554266315802	103.213328961612	315.013959738403	1364.313605358664	57.589792395938	283.327394242213	913.569233261420	1077.798270170812	209.240993505370	914.525049862908	816.416372243332	209.059888943186	1206.388020147011	1107.620759362671	735.583920566665	1411.519468948718	1175.897334918599	615.089595696996	
126	21.667500000000	880.808638337277	1000.387007514600	501.043683995961	1032.452317070728	1417.555944814298	283.620549482627	1161.783876821952	1353.401682877704	426.104031675289	1111.108247216317	1433.372481929203	609.707196560227	1042.946765816206	1484.243496615438	435.223837245158	1119.633038526244	929.485467903681	587.268824579684	1071.537628107624	948.794071454693	316.616948885106	1115.535759089419	716.094337608710	560.131785551652	1017.576711563705	622.120320110530	631.666008834771	1070.146486098628	556.422425925639	546.432800011892	1050.269344697799	470.131111548420	552.922680625595	1150.088383041274	763.269322839083	344.867608341554	1090.269056057020	634.128998036484	278.476621339872	1197.059751271821	576.262000784822	334.192502087174	1216.111990884846	505.656645296262	334.004021720293	1192.620716866130	430.792780417108	325.177838953117	1109.514552558847	309.434048704268	277.913627094716	1183.486659556534	201.426537965481	334.439878832467	1007.448700665035	387.419498231437	564.781843201811	924.505604151417	298.374138935645	635.808780628500	940.881861907338	197.792259957062	571.101572332281	783.277293504359	44.159643272704	553.205619192269	955.859058827220	95.658736800091	581.325916781691	868.928875008245	37.037324691530	625.115730017455	1076.894426396282	42.089845931964	607.215972975255	1076.525355117797	38.374659645799	376.462435749468	1147.779194427246	35.982808317809	293.530801102664	1229.252769466490	100.833656268621	316.301469124843	1357.683700704755	53.620924606504	284.472228334494	916.651187571490	1075.545077778662	205.276609422739	921.185431952498	814.062716174154	204.822994972459	1202.149546171954	1105.652309538890	732.487020109942	1409.684747170097	1164.462933299987	610.155526158557	
127	21.681000000000	882.026832269834	999.757446613543	498.075866132446	1033.197330365034	1416.517991107505	279.690158765557	1162.539178077494	1353.077265461279	422.533812359732	1111.395383357866	1433.451653850882	605.897980041480	1043.387706940363	1483.749944392627	431.110344127705	1120.902013049741	929.040721075965	584.416729699927	1072.905222692464	948.334206291546	313.918588461909	1117.308786289777	715.387674958479	557.566944161563	1019.291756163187	621.276947308043	628.969642670486	1072.125051288774	555.336435573999	544.011770951501	1052.180741306908	467.978211158097	550.831780378170	1151.569549663402	762.159312897362	342.893350947403	1090.890517674546	633.628591323031	276.828972182703	1196.920824919659	575.060513202205	333.209124714652	1214.864864378965	503.972620528880	333.405669254091	1191.106440418123	429.059441889954	324.549694628697	1107.295845540565	308.318396970085	276.728696616629	1179.361160394112	199.849340191447	334.632759376998	1007.523465173122	386.120123590061	562.913498835253	923.139058618752	298.815041416388	634.612004968977	937.596082002336	197.642253187023	570.423164276048	777.961581468620	45.608539638313	553.474614977745	950.998865269642	95.811125107850	581.381701323272	863.718350185468	37.593378645512	625.208341428298	1071.704992048224	41.547912234948	607.305905841929	1070.047913880479	38.082182662270	376.681019671320	1141.385049362426	35.381729275292	293.745058557315	1223.510082014543	99.189504591038	317.128257507321	1351.732337816771	50.834716784545	285.268235503615	920.306089113903	1073.408391668787	201.063003033471	928.654924560630	811.876936668882	200.209286268582	1197.540264569613	1103.929749836214	729.411045383811	1407.499498867006	1151.809106155054	605.355746242258	
